<svg xmlns="http://www.w3.org/2000/svg" version="1.1" xmlns:xlink="http://www.w3.org/1999/xlink" xmlns:svgjs="http://svgjs.dev/svgjs" width="1440" height="560" preserveAspectRatio="none" viewBox="0 0 1440 560"><g mask="url(&quot;#SvgjsMask1020&quot;)" fill="none"><path d="M922.01-68C735.94-38.34 637.82 410.64 340.89 411.96 43.97 413.28-83.55 181.16-240.22 176.76" stroke="rgba(37, 170, 225, 1)" stroke-width="2"></path><path d="M927.71-72.18C812.91-61.06 740.63 180.76 542.7 182.04 344.77 183.32 350.19 112.04 157.69 112.04-34.81 112.04-129.49 181.76-227.32 182.04" stroke="rgba(37, 170, 225, 1)" stroke-width="2"></path><path d="M1076.11-96.58C894.15-71.78 794.05 348.49 493.47 350.8 192.9 353.11 61.32 200.83-89.16 199.6" stroke="rgba(37, 170, 225, 1)" stroke-width="2"></path><path d="M1238.88-7.17C1114.06-0.86 1019.25 218.07 792.86 218.65 566.47 219.23 569.85 148.65 346.84 148.65 123.83 148.65 13.69 218.44-99.18 218.65" stroke="rgba(37, 170, 225, 1)" stroke-width="2"></path><path d="M1216.32-40.32C1074.67-23.74 993.6 289.58 752.7 292.09 511.79 294.6 520.89 222.09 289.07 222.09 57.26 222.09-57.33 291.89-174.55 292.09" stroke="rgba(37, 170, 225, 1)" stroke-width="2"></path></g><defs><mask id="SvgjsMask1020"><rect width="1440" height="560" fill="#ffffff"></rect></mask></defs></svg>